<svg width="27" height="19" viewBox="0 0 27 19" fill="none" xmlns="http://www.w3.org/2000/svg">
<path d="M17.7874 10C17.7874 10.2277 17.5999 10.4286 17.3588 10.4286H14.3588V15.1429C14.3588 15.3705 14.1579 15.5714 13.9302 15.5714H11.3588C11.1311 15.5714 10.9302 15.3705 10.9302 15.1429V10.4286H7.93025C7.68917 10.4286 7.50167 10.2411 7.50167 10C7.50167 9.87946 7.55525 9.77232 7.6356 9.67857L12.3365 4.97768C12.4169 4.89732 12.5374 4.85714 12.6445 4.85714C12.7651 4.85714 12.8722 4.89732 12.9526 4.97768L17.6669 9.69196C17.7472 9.77232 17.7874 9.89286 17.7874 10ZM26.3588 13.8571C26.3588 11.4732 24.7115 9.39732 22.3811 8.84821C22.7427 8.29911 22.9302 7.65625 22.9302 7C22.9302 5.11161 21.3901 3.57143 19.5017 3.57143C18.6847 3.57143 17.8945 3.86607 17.2785 4.40178C16.2204 1.83036 13.716 0.142856 10.9302 0.142856C7.14007 0.142856 4.0731 3.20982 4.0731 7C4.0731 7.1875 4.0865 7.375 4.09989 7.57589C1.99721 8.55357 0.644531 10.6696 0.644531 13C0.644531 16.308 3.3365 19 6.64453 19H21.216C24.0552 19 26.3588 16.6964 26.3588 13.8571Z" fill="#848484"/>
</svg>
