<svg width="24" height="20" viewBox="0 0 24 20" fill="none" xmlns="http://www.w3.org/2000/svg">
<path d="M24 6.9375C23.5982 7.37946 23.1429 7.76786 22.6607 8.10268C20.4241 9.61607 18.1741 11.1429 15.9911 12.7232C14.8661 13.5536 13.4732 14.5714 12.0134 14.5714H12H11.9866C10.5268 14.5714 9.13393 13.5536 8.00893 12.7232C5.82589 11.1295 3.57589 9.61607 1.35268 8.10268C0.857143 7.76786 0.401786 7.37946 0 6.9375V17.5714C0 18.75 0.964286 19.7143 2.14286 19.7143H21.8571C23.0357 19.7143 24 18.75 24 17.5714V6.9375ZM24 3C24 1.82143 23.0223 0.857142 21.8571 0.857142H2.14286C0.709821 0.857142 0 1.98214 0 3.29464C0 4.51339 1.35268 6.02678 2.30357 6.66964C4.37946 8.11607 6.48214 9.5625 8.55804 11.0223C9.42857 11.625 10.9018 12.8571 11.9866 12.8571H12H12.0134C13.0982 12.8571 14.5714 11.625 15.442 11.0223C17.5179 9.5625 19.6205 8.11607 21.7098 6.66964C22.8884 5.85268 24 4.5 24 3Z" fill="#848484"/>
</svg>
