<svg width="23" height="23" viewBox="0 0 23 23" fill="none" xmlns="http://www.w3.org/2000/svg">
<path d="M12 20.2455V10.1741L20.5714 7.05357V15.5714L12 20.2455ZM11.1429 8.66071L1.79464 5.25893L11.1429 1.85714L20.4911 5.25893L11.1429 8.66071ZM22.2857 5.28571C22.2857 4.5625 21.8304 3.91964 21.1607 3.67857L11.7321 0.249999C11.5446 0.183035 11.3438 0.142856 11.1429 0.142856C10.942 0.142856 10.7411 0.183035 10.5536 0.249999L1.125 3.67857C0.455357 3.91964 0 4.5625 0 5.28571V15.5714C0 16.2009 0.348214 16.7768 0.897321 17.0714L10.3259 22.2143C10.5804 22.3616 10.8616 22.4286 11.1429 22.4286C11.4241 22.4286 11.7054 22.3616 11.9598 22.2143L21.3884 17.0714C21.9375 16.7768 22.2857 16.2009 22.2857 15.5714V5.28571Z" fill="#848484"/>
</svg>
