<svg width="24" height="21" viewBox="0 0 24 21" fill="none" xmlns="http://www.w3.org/2000/svg">
<path d="M14.5714 9.57143C14.5714 10.0402 14.183 10.4286 13.7143 10.4286H10.2857C9.81696 10.4286 9.42857 10.0402 9.42857 9.57143C9.42857 9.10268 9.81696 8.71428 10.2857 8.71428H13.7143C14.183 8.71428 14.5714 9.10268 14.5714 9.57143ZM22.2857 7C22.2857 6.53125 21.8973 6.14286 21.4286 6.14286H2.57143C2.10268 6.14286 1.71429 6.53125 1.71429 7V19.8571C1.71429 20.3259 2.10268 20.7143 2.57143 20.7143H21.4286C21.8973 20.7143 22.2857 20.3259 22.2857 19.8571V7ZM23.1429 0.999999C23.1429 0.531249 22.7545 0.142856 22.2857 0.142856H1.71429C1.24554 0.142856 0.857143 0.531249 0.857143 0.999999V4.42857C0.857143 4.89732 1.24554 5.28571 1.71429 5.28571H22.2857C22.7545 5.28571 23.1429 4.89732 23.1429 4.42857V0.999999Z" fill="#848484"/>
</svg>
