<svg width="25" height="25" viewBox="0 0 25 25" fill="none" xmlns="http://www.w3.org/2000/svg">
<path d="M12.5 0.42857C5.87054 0.42857 0.5 5.79911 0.5 12.4286C0.5 19.058 5.87054 24.4286 12.5 24.4286C19.1295 24.4286 24.5 19.058 24.5 12.4286C24.5 5.79911 19.1295 0.42857 12.5 0.42857ZM12.5 2.14286C14.2411 2.14286 15.8884 2.58482 17.3348 3.34821L14.7366 5.94643C14.0268 5.70536 13.2902 5.57143 12.5 5.57143C11.7232 5.57143 10.9732 5.70536 10.2634 5.94643L7.66518 3.34821C9.11161 2.58482 10.7589 2.14286 12.5 2.14286ZM3.41964 17.2634C2.65625 15.817 2.21429 14.1696 2.21429 12.4286C2.21429 10.6875 2.65625 9.04018 3.41964 7.59375L6.01786 10.192C5.77679 10.9018 5.64286 11.6384 5.64286 12.4286C5.64286 13.2054 5.77679 13.9554 6.01786 14.6652L3.41964 17.2634ZM12.5 22.7143C10.7589 22.7143 9.11161 22.2723 7.66518 21.5089L10.2634 18.9107C10.9732 19.1518 11.7232 19.2857 12.5 19.2857C13.2902 19.2857 14.0268 19.1518 14.7366 18.9107L17.3348 21.5089C15.8884 22.2723 14.2411 22.7143 12.5 22.7143ZM12.5 17.5714C9.66071 17.5714 7.35714 15.2679 7.35714 12.4286C7.35714 9.58928 9.66071 7.28571 12.5 7.28571C15.3393 7.28571 17.6429 9.58928 17.6429 12.4286C17.6429 15.2679 15.3393 17.5714 12.5 17.5714ZM18.9821 14.6652C19.2232 13.9554 19.3571 13.2054 19.3571 12.4286C19.3571 11.6518 19.2232 10.9018 18.9821 10.192L21.5804 7.59375C22.3438 9.04018 22.7857 10.6875 22.7857 12.4286C22.7857 14.1696 22.3438 15.817 21.5804 17.2634L18.9821 14.6652Z" fill="#848484"/>
</svg>
