<svg width="26" height="25" viewBox="0 0 26 25" fill="none" xmlns="http://www.w3.org/2000/svg">
<path d="M8.0865 12.4286C7.39007 11.4241 7.00167 10.2187 7.00167 9C7.00167 8.70536 7.02846 8.41071 7.06864 8.11607C6.49275 8.31696 5.90346 8.42411 5.28739 8.42411C3.47935 8.42411 2.0865 7.28571 1.80525 7.28571C0.104353 7.28571 0.144531 10.9286 0.144531 12.0134C0.144531 13.5 1.40346 14.1429 2.74275 14.1429H4.53739C5.43471 13.0714 6.69364 12.4687 8.0865 12.4286ZM22.4302 20.9598C22.4302 17.933 21.7204 13.2857 17.7963 13.2857C17.341 13.2857 15.6802 15.1473 13.0017 15.1473C10.3231 15.1473 8.66239 13.2857 8.20703 13.2857C4.28292 13.2857 3.5731 17.933 3.5731 20.9598C3.5731 23.1295 5.00614 24.4286 7.149 24.4286H18.8544C20.9972 24.4286 22.4302 23.1295 22.4302 20.9598ZM8.71596 3.85714C8.71596 1.96875 7.17578 0.42857 5.28739 0.42857C3.399 0.42857 1.85882 1.96875 1.85882 3.85714C1.85882 5.74553 3.399 7.28571 5.28739 7.28571C7.17578 7.28571 8.71596 5.74553 8.71596 3.85714ZM18.1445 9C18.1445 6.16071 15.841 3.85714 13.0017 3.85714C10.1624 3.85714 7.85882 6.16071 7.85882 9C7.85882 11.8393 10.1624 14.1429 13.0017 14.1429C15.841 14.1429 18.1445 11.8393 18.1445 9ZM25.8588 12.0134C25.8588 10.9286 25.899 7.28571 24.1981 7.28571C23.9169 7.28571 22.524 8.42411 20.716 8.42411C20.0999 8.42411 19.5106 8.31696 18.9347 8.11607C18.9749 8.41071 19.0017 8.70536 19.0017 9C19.0017 10.2187 18.6133 11.4241 17.9169 12.4286C19.3097 12.4687 20.5686 13.0714 21.466 14.1429H23.2606C24.5999 14.1429 25.8588 13.5 25.8588 12.0134ZM24.1445 3.85714C24.1445 1.96875 22.6044 0.42857 20.716 0.42857C18.8276 0.42857 17.2874 1.96875 17.2874 3.85714C17.2874 5.74553 18.8276 7.28571 20.716 7.28571C22.6044 7.28571 24.1445 5.74553 24.1445 3.85714Z" fill="#848484"/>
</svg>
