<svg width="31" height="31" viewBox="0 0 31 31" fill="none" xmlns="http://www.w3.org/2000/svg">
<path fill-rule="evenodd" clip-rule="evenodd" d="M15.7746 30.6386C24.0936 30.6386 30.8375 23.9229 30.8375 15.6386C30.8375 7.35434 24.0936 0.638611 15.7746 0.638611C7.45558 0.638611 0.71167 7.35434 0.71167 15.6386C0.71167 17.1666 0.941106 18.6413 1.36754 20.0303C1.47636 20.0498 1.6523 20.0944 1.90866 20.1692L1.50834 13.8967C1.50834 13.7817 1.7031 13.7264 1.88153 13.6757C1.97946 13.6479 2.07247 13.6215 2.12567 13.5874C2.27094 13.4959 5.26258 14.5837 5.42239 14.6559L9.248 16.3792C10.2359 15.7582 11.4175 15.5079 12.5797 15.6764L16.0566 11.4549C16.1002 8.08545 18.8604 5.37061 22.2551 5.3658C25.4269 5.39949 28.0564 7.80626 28.3567 10.9399C28.6763 14.3286 26.1775 17.3323 22.7684 17.6548L16.9767 21.7704C16.6232 23.5754 15.3254 25.0532 13.5724 25.6404C10.8848 26.5454 7.96472 25.111 7.05917 22.4346L5.04467 21.7704C4.89531 21.7231 2.15386 20.5874 1.41129 20.1703C3.34051 26.2396 9.04168 30.6386 15.7746 30.6386ZM25.3546 11.527C25.3546 13.2284 23.967 14.6077 22.2553 14.6077C20.5436 14.6077 19.156 13.2284 19.156 11.527C19.156 9.82564 20.5436 8.44637 22.2553 8.44637C23.967 8.44637 25.3546 9.82564 25.3546 11.527ZM24.3236 11.5271C24.3236 12.6622 23.3978 13.5824 22.2557 13.5824C21.1137 13.5824 20.1879 12.6622 20.1879 11.5271C20.1879 10.3919 21.1137 9.47168 22.2557 9.47168C23.3978 9.47168 24.3236 10.3919 24.3236 11.5271ZM10.5804 23.5417C10.9969 23.7439 11.4569 23.8498 11.9218 23.8498C12.2753 23.8498 12.6191 23.792 12.9581 23.6813C13.7377 23.4118 14.3721 22.8486 14.7304 22.1121C15.4761 20.5766 14.8272 18.7378 13.2873 17.9965C13.0259 17.8714 12.7208 17.9773 12.5949 18.2324C12.469 18.4923 12.5755 18.7956 12.8322 18.9207C12.8661 18.9352 12.9 18.9496 12.9338 18.9689C13.9508 19.4887 14.343 20.7258 13.82 21.7367C13.297 22.7475 12.0477 23.1374 11.0356 22.6175C10.7741 22.4924 10.469 22.5983 10.3431 22.8534C10.2172 23.1133 10.3238 23.4166 10.5804 23.5417Z" fill="#FFB548"/>
</svg>
