<svg width="19" height="14" viewBox="0 0 19 14" fill="none" xmlns="http://www.w3.org/2000/svg">
<path opacity="0.3" d="M18.3981 1.75223C17.7231 2.03519 17.0072 2.22096 16.2741 2.30336C17.0365 1.8696 17.623 1.1841 17.899 0.366109C17.1731 0.773936 16.3789 1.06126 15.5508 1.21568C14.8519 0.508971 13.8744 0.108676 12.8519 0.110357C10.8105 0.110357 9.15361 1.67754 9.15361 3.61076C9.15361 3.88546 9.18627 4.15319 9.25021 4.40883C6.17639 4.26261 3.45216 2.86952 1.62787 0.751208C1.30934 1.26761 1.12764 1.8696 1.12764 2.51132C1.12764 3.7253 1.78024 4.79698 2.77231 5.42487C2.18494 5.40783 1.61046 5.25766 1.09706 4.98697V5.03161C1.09706 6.72726 2.37189 8.14223 4.06278 8.46451C3.5182 8.60412 2.94722 8.62459 2.39305 8.52439C2.86384 9.91541 4.22998 10.9273 5.8475 10.9567C4.5821 11.8941 2.98781 12.4549 1.25483 12.4549C0.960153 12.4545 0.66574 12.4382 0.373047 12.4059C2.00943 13.3988 3.95365 13.9791 6.04185 13.9791C12.8438 13.9791 16.5627 8.64372 16.5627 4.01687C16.5627 3.86553 16.5627 3.71419 16.5513 3.56394C17.2749 3.06824 17.8998 2.45481 18.3969 1.75223H18.3981Z" fill="white"/>
</svg>
