<svg width="31" height="31" viewBox="0 0 31 31" fill="none" xmlns="http://www.w3.org/2000/svg">
<path d="M10.5514 3.28815C12.1356 3.90936 13.667 4.72984 15.1104 5.73198C15.2747 5.84333 15.4625 5.90194 15.6502 5.90194C15.838 5.90194 16.0257 5.84333 16.19 5.73198C17.6334 4.72984 19.1648 3.9035 20.7491 3.28229C21.107 3.14163 21.3476 2.79 21.3417 2.40321C21.3417 2.01641 21.1011 1.67064 20.7373 1.53585C17.5689 0.334444 13.7315 0.334444 10.569 1.53585C10.211 1.67064 9.9646 2.02227 9.9646 2.40321C9.9646 2.78414 10.1876 3.14749 10.5514 3.28815Z" fill="#FFB548"/>
<path d="M24.1587 3.29347C23.8594 3.08835 23.478 3.07077 23.1553 3.25244C21.4009 4.26045 19.7052 5.41497 18.1034 6.68671C17.8922 6.85666 17.7631 7.10866 17.7513 7.37825C17.7396 7.64783 17.8452 7.91156 18.0388 8.09909C21.3599 11.2579 25.96 20.9453 27.0162 25.3993C24.7278 21.5314 19.6231 12.43 16.2845 9.31808C15.9265 8.98403 15.3633 8.98403 15.0053 9.31808C11.6608 12.43 6.5737 21.5373 4.28536 25.4111C5.34152 20.9571 9.92992 11.2579 13.2509 8.09909C13.4504 7.91156 13.5561 7.64783 13.5443 7.37825C13.5326 7.10866 13.4035 6.85666 13.1923 6.68671C11.5904 5.41497 9.88885 4.26045 8.14033 3.25244C7.82935 3.07077 7.43622 3.08835 7.13698 3.29347C3.05905 6.10066 0.624023 10.7129 0.624023 15.6357C0.624023 19.2341 1.92075 22.7035 4.28536 25.4111C7.11351 28.7281 11.2501 30.6386 15.6449 30.6386C20.0397 30.6386 24.1822 28.734 27.0162 25.4052C29.369 22.7094 30.6658 19.2399 30.6658 15.6357C30.6658 10.7129 28.2307 6.10066 24.1587 3.29347Z" fill="#FFB548"/>
</svg>
