<svg width="23" height="24" viewBox="0 0 23 24" fill="none" xmlns="http://www.w3.org/2000/svg">
<g clip-path="url(#clip0_3490_104)">
<path d="M16.1343 6.08719L9.44113 9.17953C9.11742 9.32911 8.85782 9.59152 8.70986 9.91875L5.65077 16.6847C5.29788 17.4652 6.09314 18.2695 6.86569 17.9128L13.5589 14.8205C13.8826 14.6709 14.1422 14.4085 14.2901 14.0812L17.3492 7.31531C17.7021 6.53437 16.9069 5.73047 16.1343 6.08719ZM12.5471 13.0584C11.9688 13.643 11.0312 13.643 10.4529 13.0584C9.8747 12.4739 9.8747 11.5261 10.4529 10.9416C11.0312 10.357 11.9688 10.357 12.5471 10.9416C13.1253 11.5261 13.1253 12.4739 12.5471 13.0584ZM11.5 0.375C5.14857 0.375 0 5.57953 0 12C0 18.4205 5.14857 23.625 11.5 23.625C17.8514 23.625 23 18.4205 23 12C23 5.57953 17.8514 0.375 11.5 0.375ZM11.5 21.375C6.38621 21.375 2.22581 17.1694 2.22581 12C2.22581 6.83063 6.38621 2.625 11.5 2.625C16.6138 2.625 20.7742 6.83063 20.7742 12C20.7742 17.1694 16.6138 21.375 11.5 21.375Z" fill="white"/>
</g>
<defs>
<clipPath id="clip0_3490_104">
<rect width="23" height="24" fill="white"/>
</clipPath>
</defs>
</svg>
