<svg width="23" height="23" viewBox="0 0 23 23" fill="none" xmlns="http://www.w3.org/2000/svg">
<g clip-path="url(#clip0_3490_106)">
<path d="M22.2177 7.39037C22.0067 7.21594 17.1989 3.34964 16.142 2.50929C15.149 1.71561 13.4513 0 11.5 0C9.55915 0 7.87768 1.69432 6.858 2.50929C5.75907 3.38302 0.970088 7.23485 0.786807 7.38552C0.540798 7.58781 0.342653 7.84208 0.206611 8.13006C0.0705697 8.41804 9.03375e-06 8.73258 0 9.05108L0 20.8438C0 22.0346 0.965371 23 2.15625 23H20.8438C22.0346 23 23 22.0346 23 20.8438V9.05216C23 8.73466 22.9299 8.42107 22.7947 8.13381C22.6594 7.84654 22.4624 7.59268 22.2177 7.39037ZM20.8438 20.5742C20.8438 20.6457 20.8154 20.7143 20.7648 20.7648C20.7143 20.8154 20.6457 20.8438 20.5742 20.8438H2.42578C2.3543 20.8438 2.28574 20.8154 2.23519 20.7648C2.18465 20.7143 2.15625 20.6457 2.15625 20.5742V9.17965C2.15625 9.09821 2.19291 9.02126 2.25625 8.97009C2.96916 8.39446 7.14343 5.037 8.20228 4.19521C9.01829 3.54344 10.4398 2.15625 11.5 2.15625C12.5643 2.15625 14.0092 3.5654 14.7977 4.19521C15.8567 5.03709 20.0312 8.39509 20.7438 8.97112C20.7751 8.99637 20.8003 9.02829 20.8175 9.06453C20.8348 9.10078 20.8438 9.14044 20.8438 9.18059V20.5742ZM19.4067 12.1422C19.5975 12.374 19.5623 12.717 19.3283 12.905C18.0267 13.9509 16.6656 15.0432 16.142 15.4594C15.1223 16.2744 13.4408 17.9688 11.5 17.9688C9.54805 17.9688 7.84844 16.2511 6.858 15.4594C6.35132 15.0566 4.98278 13.9584 3.67182 12.9049C3.43778 12.7168 3.40261 12.3739 3.59344 12.1421L4.27885 11.3098C4.46654 11.0819 4.80251 11.0473 5.0326 11.2323C6.31817 12.2655 7.66349 13.3452 8.20228 13.7735C8.9908 14.4033 10.4357 15.8125 11.5 15.8125C12.5602 15.8125 13.9818 14.4253 14.7977 13.7735C15.3365 13.3452 16.6819 12.2655 17.9675 11.2324C18.1976 11.0475 18.5336 11.0821 18.7212 11.31L19.4067 12.1422Z" fill="white"/>
</g>
<defs>
<clipPath id="clip0_3490_106">
<rect width="23" height="23" fill="white"/>
</clipPath>
</defs>
</svg>
