<svg width="24" height="24" viewBox="0 0 24 24" fill="none" xmlns="http://www.w3.org/2000/svg">
<g clip-path="url(#clip0_3490_52)">
<path d="M23.1837 7.71169C22.9635 7.52967 17.9467 3.49528 16.8438 2.61839C15.8077 1.7902 14.0361 0 12 0C9.97477 0 8.22019 1.76798 7.15617 2.61839C6.00947 3.53011 1.01227 7.54941 0.821016 7.70662C0.564311 7.91771 0.357551 8.18304 0.215594 8.48354C0.0736379 8.78405 9.42652e-06 9.11226 0 9.44461L0 21.75C0 22.9927 1.00734 24 2.25 24H21.75C22.9927 24 24 22.9927 24 21.75V9.44573C24 9.11443 23.9268 8.78721 23.7857 8.48745C23.6446 8.1877 23.4391 7.9228 23.1837 7.71169ZM21.75 21.4688C21.75 21.5433 21.7204 21.6149 21.6676 21.6676C21.6149 21.7204 21.5433 21.75 21.4688 21.75H2.53125C2.45666 21.75 2.38512 21.7204 2.33238 21.6676C2.27963 21.6149 2.25 21.5433 2.25 21.4688V9.57877C2.25 9.49378 2.28825 9.41348 2.35434 9.36009C3.09825 8.75944 7.45402 5.256 8.55891 4.37761C9.41039 3.6975 10.8937 2.25 12 2.25C13.1106 2.25 14.6183 3.72042 15.4411 4.37761C16.5461 5.25609 20.9022 8.76009 21.6458 9.36117C21.6783 9.38752 21.7046 9.42082 21.7227 9.45864C21.7407 9.49647 21.75 9.53785 21.75 9.57975V21.4688ZM20.2504 12.6701C20.4496 12.912 20.4128 13.2699 20.1686 13.4661C18.8104 14.5575 17.3902 15.6972 16.8438 16.1316C15.7798 16.982 14.0252 18.75 12 18.75C9.96319 18.75 8.18967 16.9576 7.15617 16.1316C6.62747 15.7112 5.19942 14.5653 3.83147 13.466C3.58725 13.2697 3.55055 12.9119 3.74967 12.67L4.46489 11.8015C4.66073 11.5637 5.01131 11.5276 5.25141 11.7206C6.59288 12.7988 7.99669 13.9254 8.55891 14.3724C9.3817 15.0296 10.8894 16.5 12 16.5C13.1063 16.5 14.5897 15.0525 15.4411 14.3724C16.0033 13.9254 17.4072 12.7988 18.7487 11.7208C18.9888 11.5278 19.3394 11.5639 19.5352 11.8017L20.2504 12.6701Z" fill="#3CB878"/>
</g>
<defs>
<clipPath id="clip0_3490_52">
<rect width="24" height="24" fill="white"/>
</clipPath>
</defs>
</svg>
